# xmcd
#
# Track frame offsets:
#	150
#	16235
#	30514
#	41843
#	60762
#	72639
#	86681
#	100259
#	115934
#	127233
#	139635
#	149603
#	161651
#	175230
#
# Disc length: 2548 seconds
# Revision: 1
# Processed by: cddbd v1.5.2PL0 Copyright (c) Steve Scherf et al.
# Submitted via: dBpowerAMP V12.0
#
DISCID=c609f20e
DTITLE=Michael Cleveland and Flamekeeper - On Down The Line
DYEAR=2014
DGENRE=Country
TTITLE0=Too Late For Goodbyes
TTITLE1=Fiddlin' Joe
TTITLE2=Just Call Me Crazy
TTITLE3=Come Along Jody
TTITLE4=Johnny Thompson
TTITLE5=That Ol' Train
TTITLE6=The Sunny Side Of Town
TTITLE7=Jack O' Diamonds
TTITLE8=Over On The Other Side
TTITLE9=When The Warden Turns The Key
TTITLE10=Me And My Fiddle
TTITLE11=She Ain't Sayin'
TTITLE12=The Garden Wall
TTITLE13=The Orange Blossom Special
EXTD=
EXTT0=
EXTT1=
EXTT2=
EXTT3=
EXTT4=
EXTT5=
EXTT6=
EXTT7=
EXTT8=
EXTT9=
EXTT10=
EXTT11=
EXTT12=
EXTT13=
PLAYORDER=
